<svg width="581" height="436" viewBox="0 0 581 436" fill="none" xmlns="http://www.w3.org/2000/svg">
<path d="M15.3811 12C15.3811 28.0391 15.2883 43.3711 11.3811 59" stroke="black" stroke-width="3" stroke-linecap="round"/>
<path d="M12.3811 7C19.1095 5.77665 35.2819 6.59977 28.1033 18.4444C25.18 23.2679 12.3478 28.9501 8.38107 23" stroke="black" stroke-width="3" stroke-linecap="round"/>
<path d="M35.3811 2C39.4146 25.0151 38.3811 46.8635 38.3811 70" stroke="black" stroke-width="3" stroke-linecap="round"/>
<path d="M65.3811 56C58.4316 55.0645 52.4648 55.4371 50.9922 63.3889C50.0905 68.2581 56.4801 67.6864 59.1589 65.5556C61.4165 63.7597 62.3811 57.1747 62.3811 58.3333C62.3811 63.2152 62.5035 66.8979 66.3811 70" stroke="black" stroke-width="3" stroke-linecap="round"/>
<path d="M72.3811 61C72.5284 68.0714 76.5941 68.6762 79.3811 62.2222C82.0676 56.0007 81.3675 58.2043 82.3811 64.2222C82.9709 67.7244 86.0254 82.8124 81.6033 84.7778C77.8285 86.4554 76.3811 82.9595 76.3811 80" stroke="black" stroke-width="3" stroke-linecap="round"/>
<path d="M91.3811 68C93.3763 66.4884 98.0106 64.2175 97.1589 61C96.3079 57.7853 91.448 56.9315 89.9922 60.1667C86.7881 67.2868 93.4163 74 100.381 74" stroke="black" stroke-width="3" stroke-linecap="round"/>
<path d="M106.381 64C106.381 75.8707 105.3 63.8163 106.992 60.0555C109.067 55.4443 114.56 57.2357 118.381 58" stroke="black" stroke-width="3" stroke-linecap="round"/>
<path d="M132.381 75C132.56 67.1283 134.454 59.3236 136.603 51.7778C138.669 44.5227 140.277 30.716 146.381 25.4445C148.344 23.749 153.141 45.397 153.381 46.5556C154.92 53.993 156.319 61.7813 158.381 69" stroke="black" stroke-width="3" stroke-linecap="round"/>
<path d="M137.381 53C144.16 53 150.749 53.3264 157.381 52" stroke="black" stroke-width="3" stroke-linecap="round"/>
<path d="M11.3811 7V15" stroke="black" stroke-width="3" stroke-linecap="round"/>
<path d="M9.38109 292C54.7247 292 100.297 292.322 145.603 294C147.711 294.078 154.381 294.278 154.381 296.611C154.381 313.968 159.215 330.229 160.326 347.444C162.01 373.555 160.381 399.344 160.381 425.389C160.381 430.864 136.021 427.982 132.603 428C109.124 428.126 85.7233 430.668 62.3811 426.778C45.8698 424.026 28.8834 418 12.0478 418C5.00558 418 6.38109 412.907 6.38109 406.556C6.38109 391.427 5.49677 376.118 2.93664 361.222C0.973751 349.802 2.59117 339.994 3.32553 328.611C3.95343 318.879 5.38109 309.222 5.38109 299.5C5.38109 297.012 5.23509 294.482 5.38109 292C5.48662 290.206 10.8804 291 12.3811 291" stroke="black" stroke-width="3" stroke-linecap="round"/>
<path d="M59.3811 347C64.1974 338.973 68.5263 330.248 71.1589 321.222C71.784 319.079 72.4072 310.882 74.6033 315.667C78.6646 324.514 88.3811 334.815 88.3811 345" stroke="black" stroke-width="3" stroke-linecap="round"/>
<path d="M62.3811 332H88.3811" stroke="black" stroke-width="3" stroke-linecap="round"/>
<path d="M140.381 367H191.381" stroke="black" stroke-width="3" stroke-linecap="round"/>
<path d="M187.381 361C188.61 362.228 198.363 369.215 194.881 372C193.52 373.089 192.338 374.565 191.381 376" stroke="black" stroke-width="3" stroke-linecap="round"/>
<path d="M229.381 363C224.775 363.094 221.475 363.114 219.992 368.056C218.959 371.501 218.632 376.514 222.381 378.389C229.656 382.026 231.694 372.928 233.826 368.056C236.034 363.007 233.902 372.194 234.603 375C235.645 379.168 238.352 381 242.381 381" stroke="black" stroke-width="3" stroke-linecap="round"/>
<path d="M258.381 382C259.249 386.051 260.702 389.923 261.381 394" stroke="black" stroke-width="3" stroke-linecap="round"/>
<path d="M346.381 342C346.381 348.259 346.381 354.519 346.381 360.778C346.381 364.24 345.473 369.071 346.437 372.444C346.794 373.695 349.111 370.515 349.603 370.222C352.215 368.667 356.007 368.596 358.826 369.611C366.24 372.28 360.947 379.813 355.159 380C352.517 380.085 344.381 381.765 344.381 378" stroke="black" stroke-width="3" stroke-linecap="round"/>
<path d="M372.381 386C372.466 390.916 373.205 395.298 374.381 400" stroke="black" stroke-width="3" stroke-linecap="round"/>
<path d="M392.381 364C390.213 365.342 377.517 372.397 379.603 376C381.631 379.502 389.648 382.253 393.381 383" stroke="black" stroke-width="3" stroke-linecap="round"/>
<path d="M381.381 376C396.408 376 411.379 377 426.381 377" stroke="black" stroke-width="3" stroke-linecap="round"/>
<path d="M525.381 291C504.624 291 483.898 292 463.159 292C460.084 292 444.233 289.444 442.381 293.611C440.927 296.883 441.381 300.756 441.381 304.222C441.381 315.201 441.237 326.19 441.437 337.167C441.84 359.349 440.808 382.457 443.826 404.444C444.658 410.512 445.297 416.873 445.381 423C445.402 424.547 444.37 431.03 446.048 431.944C450.383 434.309 457.337 432.509 461.826 432C471.8 430.868 481.853 430.808 491.881 431.056C511.062 431.529 529.947 434 549.214 434C557.38 434 565.238 433.394 573.326 432.944C577.118 432.734 577.381 431.752 577.381 428.278C577.381 419.522 577.548 410.749 577.159 402C576.619 389.855 576.611 377.759 576.326 365.611C576.118 356.798 573.941 348.804 572.381 340.222C570.698 330.967 570.381 321.597 570.381 312.222C570.381 308.431 570.269 306.332 568.603 303C566.62 299.033 566.972 299.951 563.159 298.778C558.154 297.238 553.599 297.366 548.381 296.778C538.112 295.621 525.496 290.628 515.381 294" stroke="black" stroke-width="3" stroke-linecap="round"/>
<path d="M497.381 318C497.538 327.569 497.071 338.76 499.381 348" stroke="black" stroke-width="3" stroke-linecap="round"/>
<path d="M497.381 320C500.063 318.713 517.172 313.238 512.659 322.611C510.668 326.746 506.332 330.738 501.826 331.778C498.398 332.569 498.74 332.839 502.103 333.056C507.42 333.399 522.536 334.078 518.159 343C514.207 351.056 503.739 350.161 496.381 352" stroke="black" stroke-width="3" stroke-linecap="round"/>
<path d="M424.381 379C431.747 378.018 438.972 378 446.381 378" stroke="black" stroke-width="3" stroke-linecap="round"/>
<path d="M402.381 54C403.529 65.9057 404.381 77.9278 404.381 89.8889C404.381 100.356 403.253 67.3742 409.381 58.8889C416.489 49.0466 418.874 61.5819 417.381 67.5556C415.08 76.7585 411.662 62.8058 411.381 60" stroke="black" stroke-width="3" stroke-linecap="round"/>
<path d="M423.381 34C425.91 46.8367 428.273 59.5508 429.603 72.5556C429.805 74.5253 429.552 79.0854 431.381 80" stroke="black" stroke-width="3" stroke-linecap="round"/>
<path d="M448.381 68C447.598 68.5154 437.809 76.7043 442.548 77.8889C446.728 78.9341 450.39 76.0005 451.159 72C452.273 66.2047 450.381 67.9351 450.381 73C450.381 77.0074 450.872 80 455.381 80" stroke="black" stroke-width="3" stroke-linecap="round"/>
<path d="M459.381 72C463.021 77.7395 467.31 79.5588 470.381 72.2222C472.93 66.1335 471.425 71.396 471.381 76C471.331 81.167 471.972 95.5033 465.603 97.7778C461.262 99.3283 461.381 91.239 461.381 89" stroke="black" stroke-width="3" stroke-linecap="round"/>
<path d="M483.381 78C485.473 75.8423 489.64 72.3738 487.159 69C484.426 65.2839 481.247 67.9795 480.381 71.4444C477.837 81.6211 491.143 88.0484 493.603 77.2222C496.001 66.6737 496.381 85.7727 496.381 75C496.381 71.8779 495.758 69.0874 499.603 69C503.896 68.9024 508.126 69.5745 512.381 70" stroke="black" stroke-width="3" stroke-linecap="round"/>
<path d="M540.381 41C541.873 50.8849 540.742 60.8799 541.937 70.7778C542.294 73.7415 542.33 78.9493 544.381 81" stroke="black" stroke-width="3" stroke-linecap="round"/>
<path d="M539.381 41C544.738 37.5334 567.245 28.6796 560.492 45C557.228 52.8879 548.433 53.9214 541.048 54C533.18 54.0837 538.133 53.9455 542.603 54C548.522 54.0722 557.307 53.794 561.159 59.2222C564.33 63.6906 564.603 72.617 561.159 77C559.12 79.5946 542.381 87.5365 542.381 81" stroke="black" stroke-width="3" stroke-linecap="round"/>
<path d="M55.3811 361C51.8652 359.278 48.4105 357.156 44.3811 358.222C40.3674 359.285 39.3345 364.208 41.4922 367.444C43.2333 370.056 53.8966 380 43.3811 380C42.7442 380 45.8012 382.217 46.3811 383.444C48.0704 387.022 48.1176 392.367 44.3255 394.5C36.2546 399.04 38.8936 407.303 47.3811 409" stroke="black" stroke-width="3" stroke-linecap="round"/>
<path d="M80.3811 362C86.8993 362.225 91.8057 363.612 92.3255 370.889C92.6371 375.252 88.6755 375.678 85.4366 377.5C82.9768 378.884 82.6502 381.629 84.9366 383.5C86.9522 385.149 93.5479 384.444 92.1033 386.611C88.4489 392.093 83.163 392.005 89.3811 399.778C91.7435 402.731 97.5839 407.466 96.1589 412C94.604 416.947 82.2671 415 78.3811 415" stroke="black" stroke-width="3" stroke-linecap="round"/>
<path d="M501.381 375C496.847 373.156 488.534 369.806 483.548 372.611C479.661 374.797 484.876 381.639 486.159 383.778C487.41 385.862 490.053 390.493 487.214 392.444C486.116 393.2 477.492 394.164 477.492 394.5C477.492 395.324 481.16 397.403 481.603 399C482.661 402.808 482.332 405.413 480.937 409C478.052 416.417 485.539 418.539 491.381 420" stroke="black" stroke-width="3" stroke-linecap="round"/>
<path d="M525.381 375C528.896 374.361 536.936 371.924 538.77 376.611C540.732 381.624 535.56 385.201 531.603 387C523.574 390.65 533.056 393.23 536.77 394.056C537.263 394.165 534.091 402.653 534.548 404.556C535.785 409.71 542.937 412.705 542.937 418.222C542.937 423.766 537.154 423 533.381 423" stroke="black" stroke-width="3" stroke-linecap="round"/>
<path d="M133.381 112C125.634 113.261 117.506 111.589 109.714 111.222C96.1186 110.582 82.4338 111 68.8255 111C55.4181 111 42.0107 111 28.6033 111C23.599 111 14.1899 110.237 10.6033 114.222C8.94355 116.066 7.90483 119.066 7.6033 121.444C6.32092 131.561 7.38107 142.385 7.38107 152.556C7.38107 173.984 9.30022 195.445 8.32552 216.889C7.94153 225.337 6.38107 233.423 6.38107 242C6.38107 249.885 16.1089 248.886 22.3811 249C46.1341 249.432 70.0583 250.494 93.77 252C109.474 252.997 125.088 253 140.826 253C143.736 253 163.762 253.308 164.381 250.833C165.875 244.857 165.381 238.544 165.381 232.444C165.381 221.694 165.616 210.914 165.326 200.167C164.876 183.536 163.381 166.85 163.381 150.222C163.381 140.066 162.151 131.681 159.603 122C157.697 114.758 159.244 112 151.27 112C142.798 112 132.13 112.293 123.881 110.5C119.68 109.587 116.931 111 113.381 111" stroke="black" stroke-width="3" stroke-linecap="round"/>
<path d="M62.3811 156C67.8417 150.379 70.9576 144.141 72.8255 136.5C72.9082 136.162 75.7689 125.036 76.3811 125.444C80.2659 128.034 83.3264 138.464 85.3811 142.5C88.3558 148.343 91.4634 154.165 94.3811 160" stroke="black" stroke-width="3" stroke-linecap="round"/>
<path d="M71.3811 147H87.3811" stroke="black" stroke-width="3" stroke-linecap="round"/>
<path d="M27.3811 184C13.9747 179.422 22.9746 196.457 24.7699 201.444C26.1173 205.187 25.3263 205.954 21.8255 206.778C19.4762 207.331 18.633 207.923 21.4366 209.5C29.7615 214.183 22.6806 220.073 19.6033 226C14.3181 236.179 21.6426 236 30.3811 236" stroke="black" stroke-width="3" stroke-linecap="round"/>
<path d="M65.3811 202C62.1355 203.537 53.0935 208.943 58.8811 213.444C63.1924 216.798 65.3811 209.349 65.3811 206.556C65.3811 200.301 64.8064 201.82 65.6033 207C66.2266 211.052 66.5322 216 71.3811 216" stroke="black" stroke-width="3" stroke-linecap="round"/>
<path d="M82.3811 215V226" stroke="black" stroke-width="3" stroke-linecap="round"/>
<path d="M103.381 184C106.145 182.947 108.962 181.041 110.603 184.667C111.882 187.492 114.026 193.678 110.381 195.5C108.63 196.376 103.47 196.827 103.381 199.222C103.251 202.739 106.392 205.282 109.381 206.444C111.359 207.213 115.713 206.353 112.881 208.556C104.926 214.743 112.846 222.628 116.326 228.5C117.733 230.876 120.413 238.113 116.937 240C112.729 242.284 108.964 240.229 106.381 237" stroke="black" stroke-width="3" stroke-linecap="round"/>
<path d="M262.381 165C268.007 173.305 271.369 182.254 274.381 191.778C275.624 195.708 276.979 199.606 278.159 203.556C278.171 203.596 279.564 208.369 279.603 208.333C283.106 205.149 284.14 194.194 285.159 189.778C286.985 181.866 288.412 173.876 290.381 166" stroke="black" stroke-width="3" stroke-linecap="round"/>
<path d="M302.381 193C291.137 202.05 301.925 199.491 305.159 208.222C307.116 213.505 294.846 210 292.381 210" stroke="black" stroke-width="3" stroke-linecap="round"/>
<path d="M543.381 104C520.442 107.529 497.074 103.724 474.27 108C462.22 110.259 450.681 114.317 438.826 116.778C436.352 117.291 431.381 118.133 431.381 121.444C431.381 127.965 433.187 134.691 433.881 141.167C435.183 153.319 435.313 165.349 435.381 177.556C435.451 190.088 435.066 205.091 439.603 217C441.221 221.247 442.144 226.489 442.381 231C442.701 237.073 454.916 234 459.603 234C480.122 234 500.64 234 521.159 234C534.269 234 546.456 235.162 559.381 236.778C563.462 237.288 570.916 238.1 574.381 235C577.072 232.593 579.311 233.061 579.381 228.778C579.679 210.592 579.483 192.394 577.159 174.333C575.226 159.317 573.166 143.864 569.159 129.222C567.168 121.947 567.261 113.131 564.603 106.222C562.669 101.193 538.271 106.555 533.381 109" stroke="black" stroke-width="3" stroke-linecap="round"/>
<path d="M502.381 131C503.698 139.722 504.381 148.518 504.381 157.333C504.381 162.576 504.381 154.918 504.381 153.944C504.381 149.699 503.969 145.187 504.826 141C505.808 136.197 509.617 129.671 515.381 130C520.057 130.267 520.063 140.104 517.937 142.778C516.097 145.09 513.093 145 510.437 145C509.295 145 505.543 144.631 508.826 145.222C512.911 145.958 521.349 146.9 522.159 152.222C523.799 163.001 509.966 163 503.381 163" stroke="black" stroke-width="3" stroke-linecap="round"/>
<path d="M488.381 173C477.088 173.282 485.204 181.867 487.77 187C491.472 194.405 478.771 194.859 480.826 197.5C484.889 202.725 482.657 205.045 479.381 209.778C475.488 215.401 482.517 216 486.381 216" stroke="black" stroke-width="3" stroke-linecap="round"/>
<path d="M510.381 180C509.639 186.771 509.719 194.382 507.881 201C507.289 203.133 506.814 203.678 508.492 202C510.035 200.457 521.031 196.717 519.714 200.667C518.558 204.135 514.81 210.844 510.603 211C507.41 211.118 505.367 210.021 507.381 207" stroke="black" stroke-width="3" stroke-linecap="round"/>
<path d="M524.381 210C524.909 212.706 525.381 215.256 525.381 218" stroke="black" stroke-width="3" stroke-linecap="round"/>
<path d="M533.381 172C536.615 171.483 544.429 169.271 547.27 172.111C551.724 176.565 542.775 181.306 539.992 183C538.257 184.056 535.125 186.171 536.937 188.5C538.091 189.984 543.245 190.407 541.714 191.5C540.197 192.584 537.381 192.385 537.381 195C537.381 199.22 543.625 202.824 545.937 205.778C547.658 207.977 549.917 214.069 547.937 216.778C545.89 219.578 539.026 217.882 536.381 217" stroke="black" stroke-width="3" stroke-linecap="round"/>
</svg>
