<svg width="414" height="416" viewBox="0 0 414 416" fill="none" xmlns="http://www.w3.org/2000/svg">
<path d="M14 159C14 168.023 13 177.071 13 186" stroke="black" stroke-width="3" stroke-linecap="round"/>
<path d="M17 173C22.3676 172.053 26.6005 171.143 31 168" stroke="black" stroke-width="3" stroke-linecap="round"/>
<path d="M15 175C19.0901 180.302 22.9991 185.666 27 191" stroke="black" stroke-width="3" stroke-linecap="round"/>
<path d="M31 179C36.3333 179 41.6667 179 47 179C50.1364 179 53.6393 180.279 52 177" stroke="black" stroke-width="3" stroke-linecap="round"/>
<path d="M39 172C39.8496 177.664 40.6126 183.45 42 189" stroke="black" stroke-width="3" stroke-linecap="round"/>
<path d="M61 168V193" stroke="black" stroke-width="3" stroke-linecap="round"/>
<path d="M2 207H22" stroke="black" stroke-width="3" stroke-linecap="round"/>
<path d="M14 206C13.0217 212.359 13 218.589 13 225" stroke="black" stroke-width="3" stroke-linecap="round"/>
<path d="M25 219C23.9182 220.848 20.3591 224.814 24 225.778C25.5466 226.187 28.5329 226.342 29.5556 224.778C32.3748 220.466 25.1674 217.416 22 219" stroke="black" stroke-width="3" stroke-linecap="round"/>
<path d="M37 209C37 216.364 35 231 35 231" stroke="black" stroke-width="3" stroke-linecap="round"/>
<path d="M30 219C33.6536 218.557 37.3129 218 41 218" stroke="black" stroke-width="3" stroke-linecap="round"/>
<path d="M50 220C41.8764 226.347 50.2124 230.588 50.9444 224C51.2415 221.326 50.9005 218.942 51 223.222C51.0729 226.355 51.9476 228.983 55 230" stroke="black" stroke-width="3" stroke-linecap="round"/>
<path d="M61 207C61 210.839 58.4616 233.231 62 235" stroke="black" stroke-width="3" stroke-linecap="round"/>
<path d="M120 163C110.7 163 102.415 165.027 98.5556 174.5C94.196 185.201 90.3867 196.475 92.2222 208.222C95.5235 229.35 127.023 232.722 141.944 223.944C159.683 213.51 158.08 186.104 142.944 174.5C136.81 169.797 132.316 166.148 124.778 164.778C119.214 163.766 113.649 164 108 164" stroke="black" stroke-width="3" stroke-linecap="round"/>
<path d="M147 178C159.948 172.409 171.043 161.273 182.556 153.222C197.836 142.537 213.251 131.914 229.444 122.611C242.437 115.147 257.994 108.455 269 98C272.601 94.5794 261.294 96 259.222 96C252.808 96 263.802 96 265.389 96C271.461 96 268 102.33 268 107" stroke="black" stroke-width="3" stroke-linecap="round"/>
<path d="M157 67C155.3 71.1802 149.867 83.4518 158 83C163.282 82.7066 164.521 73.315 165 79.7778C165.242 83.0398 171.137 82.7675 171.778 79.7778C172.691 75.5155 170.481 71 166 71" stroke="black" stroke-width="3" stroke-linecap="round"/>
<path d="M179 72V81" stroke="black" stroke-width="3" stroke-linecap="round"/>
<path d="M186 73C186 94.0172 184.849 72.2442 189 72C193.737 71.7214 192 79.7924 192 83" stroke="black" stroke-width="3" stroke-linecap="round"/>
<path d="M138 50C138 55.6296 138 61.2593 138 66.8889C138 70.8272 138.563 67.7317 139 65.7778C139.895 61.7749 140.559 57.7982 141 53.7222C142.201 42.611 150.372 57 143 57" stroke="black" stroke-width="3" stroke-linecap="round"/>
<path d="M152 42C152.542 45.0491 151.184 58 155 58" stroke="black" stroke-width="3" stroke-linecap="round"/>
<path d="M160 52C159.75 52.6402 156.718 58.4195 158.556 58.9444C159.853 59.3152 161.852 59.1869 162.444 57.8333C162.851 56.903 162.911 51.6483 163 53.7778C163.089 55.9073 164.082 57.3607 166 58" stroke="black" stroke-width="3" stroke-linecap="round"/>
<path d="M168 53C170.724 56.3532 176.554 59.5284 179.556 54C181.867 49.7417 179.177 52.2378 179 56.2222C178.923 57.9652 178.641 67.8069 177 68C174.536 68.2899 173 66.258 173 64" stroke="black" stroke-width="3" stroke-linecap="round"/>
<path d="M182 57C193.556 52.0885 181.666 50.2791 180.111 54.5556C178.95 57.7472 182.581 60.5352 184.778 62C187.85 64.048 188.766 60.4685 190 58" stroke="black" stroke-width="3" stroke-linecap="round"/>
<path d="M193 53C196.869 62.914 193.278 54.8333 197.5 50.6111C199.069 49.0424 203.82 50 206 50" stroke="black" stroke-width="3" stroke-linecap="round"/>
<path d="M212 62C217.287 54.791 218.137 46.6235 220.5 38.2222C222.481 31.1774 225.206 39.5885 226 42.5556C227.471 48.0541 228.717 53.6554 229.889 59.2222C230.336 61.3462 231 61.0216 231 59" stroke="black" stroke-width="3" stroke-linecap="round"/>
<path d="M218 51H230" stroke="black" stroke-width="3" stroke-linecap="round"/>
<path d="M121 105C122.501 104.678 134.523 101.233 128.889 97.6111C123.703 94.2776 125.741 107.607 126 109C126.474 111.549 129.063 123.105 124.444 123.944C120.326 124.693 121 120.774 121 118" stroke="black" stroke-width="3" stroke-linecap="round"/>
<path d="M134 108C134.1 108.511 135 114.332 135 113" stroke="black" stroke-width="3" stroke-linecap="round"/>
<path d="M143 108C142.793 116.273 142 112.619 142 107C142 102.944 141.744 101 146 101" stroke="black" stroke-width="3" stroke-linecap="round"/>
<path d="M158 104C151.456 104 149.073 105.359 155.444 109C159.712 111.439 152.865 114 151 114" stroke="black" stroke-width="3" stroke-linecap="round"/>
<path d="M165 100C164.114 105.536 160.389 111 167 111" stroke="black" stroke-width="3" stroke-linecap="round"/>
<path d="M162 107C164.585 107 166.86 107.426 169 106" stroke="black" stroke-width="3" stroke-linecap="round"/>
<path d="M185 107C188.116 105.145 192 104.11 192 100.056C192 99.5763 192 96.9942 192 99.9445C192 105.511 192.171 111.104 191.944 116.667C191.744 121.587 188 121.688 188 117" stroke="black" stroke-width="3" stroke-linecap="round"/>
<path d="M198 100C198.537 103.356 199 106.605 199 110" stroke="black" stroke-width="3" stroke-linecap="round"/>
<path d="M205 102C201.495 107.03 205.595 108.735 206.778 105.778C207.493 103.991 207 98.9583 207 104.5C207 109.418 212.223 128.964 204 118" stroke="black" stroke-width="3" stroke-linecap="round"/>
<path d="M215 89C214.896 94.6012 215.394 102.323 213.778 107.778C212.627 111.661 214.787 103.872 216.5 103.111C218.725 102.122 220.024 111.976 225 107" stroke="black" stroke-width="3" stroke-linecap="round"/>
<path d="M228 87C227 92.5 227 97.8848 227 103.444C227 105.818 229.374 106.504 230 104" stroke="black" stroke-width="3" stroke-linecap="round"/>
<path d="M220 97H233" stroke="black" stroke-width="3" stroke-linecap="round"/>
<path d="M325 4C325 11.2196 325.626 18.7994 324.389 25.9444C324.243 26.7902 321.097 38.0238 323.111 35.7222C326.829 31.473 328.751 25.7173 332.222 21.2222C334.324 18.5003 339 13.4444 339 13.4444C339 13.4444 336.429 16.5711 335 18C333.897 19.1029 329.111 21.8731 329.111 23.5C329.111 25.5536 333.901 29.916 335 31.7778C336.241 33.8797 337.972 35.9443 339 38" stroke="black" stroke-width="3" stroke-linecap="round"/>
<path d="M362 11V35" stroke="black" stroke-width="3" stroke-linecap="round"/>
<path d="M356 25C361.825 22.9288 367.423 23 373.5 23C374.963 23 371.708 26.4555 371.222 28.7778C370.351 32.938 375.496 34.674 377.389 30.8889C380.173 25.3208 374.723 25 371 25" stroke="black" stroke-width="3" stroke-linecap="round"/>
<path d="M383 8V33" stroke="black" stroke-width="3" stroke-linecap="round"/>
<path d="M377 19C383.1 19 388.987 18.9978 395 20" stroke="black" stroke-width="3" stroke-linecap="round"/>
<path d="M397 22C396.798 22.4556 391.559 32.1685 393.222 33C394.785 33.7814 396.1 31.4771 396.444 30.4444C397.29 27.9085 397 19.7714 397 22.4444C397 27.2587 400.211 34.8595 406 31" stroke="black" stroke-width="3" stroke-linecap="round"/>
<path d="M406 2C407.2 9.50165 407.034 17.444 408.556 24.8333C408.997 26.9769 410 28.795 410 31" stroke="black" stroke-width="3" stroke-linecap="round"/>
<path d="M412 50C372.843 50 333.623 50.7783 294.5 49C293.289 48.945 280.142 46.5123 279.222 48.4444C277.943 51.1299 278.184 55.475 278 58.3333C277.453 66.811 277.041 75.2808 277 83.7778C276.928 98.7175 276.978 113.535 276 128.444C275.537 135.503 274 142.358 274 149.444C274 151.872 290.005 146.423 291.722 146.111C310.086 142.772 330.09 143.698 348.667 144.056C361.797 144.308 374.821 146.775 388 146C389.344 145.921 390.466 144.254 392.056 144.056C397.271 143.404 402.664 144.525 407.889 143.944C415.568 143.091 410.039 85.8032 410 79.4444C409.944 70.297 410 61.1478 410 52" stroke="black" stroke-width="3" stroke-linecap="round"/>
<path d="M138 224C171.191 257.191 212.62 281.42 246.222 313.778C247.109 314.631 253.815 317.913 249.111 318C240.704 318.156 231.807 318.72 223.444 317.778C213.026 316.604 226.867 317.509 230 318C236.794 319.066 239.071 320.19 241.5 313.444C243.749 307.198 243 300.172 243 293.611C243 290.815 242.802 299.215 243.056 302C243.507 306.961 245.387 311.872 245.944 316.889C246.621 322.981 238.122 317 242 317C246.177 317 238.724 315.362 244 318" stroke="black" stroke-width="3" stroke-linecap="round"/>
<path d="M301 85C302.687 79.8391 304.043 74.8221 307 70.2222C308.817 67.3957 308.936 69.427 310.222 72C311.828 75.2113 314.831 86.4155 318 88" stroke="black" stroke-width="3" stroke-linecap="round"/>
<path d="M303 79C306.679 79.5075 310.289 80 314 80" stroke="black" stroke-width="3" stroke-linecap="round"/>
<path d="M328 79H343" stroke="black" stroke-width="3" stroke-linecap="round"/>
<path d="M334 72C334.803 77.3511 336 82.5786 336 88" stroke="black" stroke-width="3" stroke-linecap="round"/>
<path d="M354 65C355.706 69.8329 356.85 74.3777 357.5 79.4444C357.576 80.034 357.655 85.8889 358.556 85.8889C360.568 85.8889 361.671 79.7821 364.444 82.5556C368.848 86.9588 357.758 91.5155 356 88" stroke="black" stroke-width="3" stroke-linecap="round"/>
<path d="M371 89C372.3 92.0591 375.242 96.8951 378.389 92C380.532 88.6665 379 91.2739 379 94.9444C379 101.506 376.94 102 371 102" stroke="black" stroke-width="3" stroke-linecap="round"/>
<path d="M306 103C329.341 106.219 355.062 105 378 105" stroke="black" stroke-width="3" stroke-linecap="round"/>
<path d="M308 139C310.446 132.934 311.65 127.022 313 120.667C313.309 119.211 313.775 113.333 315.5 117.167C317.831 122.346 318.052 131.702 323 135" stroke="black" stroke-width="3" stroke-linecap="round"/>
<path d="M309 131H318" stroke="black" stroke-width="3" stroke-linecap="round"/>
<path d="M328 130H343" stroke="black" stroke-width="3" stroke-linecap="round"/>
<path d="M338 125V135" stroke="black" stroke-width="3" stroke-linecap="round"/>
<path d="M351 121C352.144 126.718 353 132.171 353 138" stroke="black" stroke-width="3" stroke-linecap="round"/>
<path d="M349 121C351.856 119.643 353.709 119.346 356.722 120.722C356.953 120.828 361.086 122.705 359.556 124C357.403 125.821 354.031 125.217 351.722 126.5C350.781 127.023 355.297 127 355.611 127C359.539 127 362.808 127.737 366.556 128.778C372.632 130.466 365.299 136.293 362.5 137.389C359.167 138.693 355.534 139 352 139" stroke="black" stroke-width="3" stroke-linecap="round"/>
<path d="M294 268C295.069 274.147 295.367 280.363 294.444 286.556C294.32 287.391 293.064 297.545 293.444 297.333C297.048 295.331 298.317 288.996 301.5 286.167C302.617 285.173 308.059 282.486 307.333 283C304.782 284.807 298.502 287.114 302 291C304.771 294.078 314.137 306.575 318 304" stroke="black" stroke-width="3" stroke-linecap="round"/>
<path d="M325 284C330.692 282.836 335.975 282 341.778 282C343.041 282 336.075 282 334.611 282C332.667 282 328.262 305.285 336 296" stroke="black" stroke-width="3" stroke-linecap="round"/>
<path d="M343 292C351.201 302.497 344.969 287.063 342 293" stroke="black" stroke-width="3" stroke-linecap="round"/>
<path d="M352 280V300" stroke="black" stroke-width="3" stroke-linecap="round"/>
<path d="M347 290C351.292 289.488 357.869 290.131 361 287" stroke="black" stroke-width="3" stroke-linecap="round"/>
<path d="M365 293C364.181 293.87 358.672 299.094 362.5 299.944C364.196 300.321 364.588 298.292 365 297.056C366.184 293.504 366.785 299.262 369 300" stroke="black" stroke-width="3" stroke-linecap="round"/>
<path d="M375 278C375 283.083 371.599 304 380 304" stroke="black" stroke-width="3" stroke-linecap="round"/>
<path d="M270 327C311.056 327 352.111 327 393.167 327C394.469 327 398.641 326.237 398.944 328.056C400.37 336.609 401.89 344.187 404.444 352.667C408.017 364.527 411.526 377.938 410.944 390.444C410.672 396.305 410 401.992 410 407.889C410 409.674 410.716 412 408.389 412C397.442 412 386.444 413 375.444 413C354.511 413 333.607 414 312.667 414C296.796 414 279.988 415.208 264.444 411.222C261.026 410.346 263 398.671 263 396C263 383.045 263.605 369.932 262.778 357C262.26 348.906 261 341.095 261 333C261 325.821 266.32 327 272 327" stroke="black" stroke-width="3" stroke-linecap="round"/>
<path d="M277 366C280.94 358.932 283.423 349.816 288 343.278C290.417 339.825 290.526 349.918 290.778 351.333C291.676 356.388 296 360.9 296 366" stroke="black" stroke-width="3" stroke-linecap="round"/>
<path d="M278 359H293" stroke="black" stroke-width="3" stroke-linecap="round"/>
<path d="M302 356C304.477 356 314.705 354.411 316 357" stroke="black" stroke-width="3" stroke-linecap="round"/>
<path d="M337 349C332.772 349.729 328.389 350.006 327.222 354.778C326.819 356.426 325.54 359.936 326.222 361.556C327.176 363.821 331.909 361.071 332.5 359.889C333.924 357.04 335 347.482 335 350.667C335 354.921 335.996 358.998 340 361" stroke="black" stroke-width="3" stroke-linecap="round"/>
<path d="M346 356C349.105 359.835 351.608 362.804 356 365" stroke="black" stroke-width="3" stroke-linecap="round"/>
<path d="M355 356C352.296 357.876 348.711 359.856 347.222 363C346.652 364.203 347.2 364.4 346 365" stroke="black" stroke-width="3" stroke-linecap="round"/>
<path d="M279 382H370" stroke="black" stroke-width="3" stroke-linecap="round"/>
<path d="M286 412C286.688 409.046 289.218 387.331 291 388.222C293.285 389.365 293.326 392.617 293.778 394.778C294.707 399.219 297.904 402.617 299 407" stroke="black" stroke-width="3" stroke-linecap="round"/>
<path d="M286 403C288.557 403 297.766 404.469 299 402" stroke="black" stroke-width="3" stroke-linecap="round"/>
<path d="M309 401C311.459 401 320.809 402.382 322 400" stroke="black" stroke-width="3" stroke-linecap="round"/>
<path d="M314 396V408" stroke="black" stroke-width="3" stroke-linecap="round"/>
<path d="M331 391V408" stroke="black" stroke-width="3" stroke-linecap="round"/>
<path d="M328 395C330.672 391.87 343 383.586 343 392.944C343 396.823 338.355 396.815 335.5 397.556C334.3 397.867 328.058 399 332.167 399C334.706 399 353.75 398.623 347.556 405C342.03 410.688 335.291 410 328 410" stroke="black" stroke-width="3" stroke-linecap="round"/>
<path d="M115 270C115 277.859 116.485 301.011 114 293.556C112.049 287.703 114.267 275.103 117 269.833C120.207 263.648 127.584 276 121 276" stroke="black" stroke-width="3" stroke-linecap="round"/>
<path d="M128 267C128 274.341 127 296.341 127 289" stroke="black" stroke-width="3" stroke-linecap="round"/>
<path d="M137 283C128.81 293.749 137.696 293.424 138.944 286.556C139.406 284.019 138.925 284.374 139 287C139.118 291.118 141.677 292.338 145 294" stroke="black" stroke-width="3" stroke-linecap="round"/>
<path d="M146 285C146.023 286.27 146.867 297.933 150.389 290.889C151.105 289.457 150.917 279.671 151 284.667C151.041 287.107 155.319 304.389 154.444 304.889C151.921 306.331 151 302.68 151 301" stroke="black" stroke-width="3" stroke-linecap="round"/>
<path d="M160 291C160.991 289.233 163.41 281.639 158.556 285.611C155.161 288.389 159.748 292.888 161.778 294.778C168.279 300.831 173 294.537 173 288" stroke="black" stroke-width="3" stroke-linecap="round"/>
<path d="M173 288C172.904 288.684 172.423 297.216 171.778 294.556C171.173 292.06 170.586 289.249 171.056 286.667C171.429 284.614 175.565 285 177 285" stroke="black" stroke-width="3" stroke-linecap="round"/>
<path d="M182 300C185.8 294.076 188.2 288.598 189.444 281.667C189.757 279.928 190.228 274.85 191.222 279.222C192.8 286.167 196 293.859 196 301" stroke="black" stroke-width="3" stroke-linecap="round"/>
<path d="M185 294C187.303 294 194.815 295.371 196 293" stroke="black" stroke-width="3" stroke-linecap="round"/>
<path d="M113 318C114.102 325.298 113.49 332.615 114.5 339.889C114.757 341.739 115.544 347.369 117 343" stroke="black" stroke-width="3" stroke-linecap="round"/>
<path d="M123 331C122.835 331.864 120.86 338.555 122.611 338.944C124.107 339.277 125.675 339.298 126.222 337.778C127.923 333.052 122.725 333 119 333" stroke="black" stroke-width="3" stroke-linecap="round"/>
<path d="M142 328C133.471 332.351 135.061 332.015 137.778 339C138.652 341.248 131 344.316 131 340" stroke="black" stroke-width="3" stroke-linecap="round"/>
<path d="M146 338C154.034 331.724 146 330.115 146 338C146 343.427 151.805 342 156 342" stroke="black" stroke-width="3" stroke-linecap="round"/>
<path d="M168 336C169.11 335.125 176.613 328.111 170.5 328.111C164.898 328.111 169.661 340.61 170.444 342.889C171.298 345.372 173.248 349.154 170 350.778C167.354 352.101 167 350.043 167 348" stroke="black" stroke-width="3" stroke-linecap="round"/>
<path d="M178 336V344" stroke="black" stroke-width="3" stroke-linecap="round"/>
<path d="M178 323C178.63 326.01 179.399 328.994 180 332" stroke="black" stroke-width="3" stroke-linecap="round"/>
<path d="M182 344C182 337.585 178.287 324 187 324" stroke="black" stroke-width="3" stroke-linecap="round"/>
<path d="M196 329C189.768 334.063 194.06 335.308 192.944 341.444C192.537 343.683 186.942 344.884 186 343" stroke="black" stroke-width="3" stroke-linecap="round"/>
<path d="M200 329C200 332.405 200.453 336.186 199.444 339.5C198.957 341.103 197.686 343.034 198.222 344.778C198.832 346.758 202.314 346.373 203 345" stroke="black" stroke-width="3" stroke-linecap="round"/>
<path d="M198 341H207" stroke="black" stroke-width="3" stroke-linecap="round"/>
<path d="M121 367C121.238 366.895 136.161 360.025 132.556 358.222C126.522 355.205 128 367.553 128 370.056C128 374.161 129.743 384.467 124.056 385.889C120.184 386.857 120.803 383.394 122 381" stroke="black" stroke-width="3" stroke-linecap="round"/>
<path d="M138 367V374" stroke="black" stroke-width="3" stroke-linecap="round"/>
<path d="M139 355L143 361" stroke="black" stroke-width="3" stroke-linecap="round"/>
<path d="M149 366C148.502 366.514 144.698 369.625 145.222 370.778C145.675 371.775 147.366 369.157 147.444 369C148.909 366.072 148 366.278 148 370.222C148 375.149 147.464 398.829 138 387" stroke="black" stroke-width="3" stroke-linecap="round"/>
<path d="M155 360C155 363.472 152.656 385.83 160.5 374.5C163.803 369.728 164 351.641 164 357.444C164 363.548 162.198 372.371 166.444 377.389C169.434 380.923 172.388 378.674 173 375" stroke="black" stroke-width="3" stroke-linecap="round"/>
<path d="M157 366C161.427 366.681 173.04 369.44 176 365" stroke="black" stroke-width="3" stroke-linecap="round"/>
<path d="M153 373C157.414 374.104 158 374.971 158 379" stroke="black" stroke-width="3" stroke-linecap="round"/>
</svg>
